<mxfile host="app.diagrams.net" modified="2023-10-31T07:20:25.864Z" agent="Mozilla/5.0 (Macintosh; Intel Mac OS X 10_15_7) AppleWebKit/537.36 (KHTML, like Gecko) Chrome/118.0.0.0 Safari/537.36" etag="v9viMu-hou1gGIPTH1R5" version="22.0.8" type="device">
  <diagram id="C5RBs43oDa-KdzZeNtuy" name="Page-1">
    <mxGraphModel dx="4039" dy="2547" grid="1" gridSize="10" guides="1" tooltips="1" connect="1" arrows="1" fold="1" page="1" pageScale="1" pageWidth="827" pageHeight="1169" math="0" shadow="0">
      <root>
        <mxCell id="WIyWlLk6GJQsqaUBKTNV-0" />
        <mxCell id="WIyWlLk6GJQsqaUBKTNV-1" parent="WIyWlLk6GJQsqaUBKTNV-0" />
        <mxCell id="2mamSJqBOHEd31Jv1TZt-122" value="" style="endArrow=classic;html=1;rounded=0;strokeColor=#FF0000;entryX=0.5;entryY=0;entryDx=0;entryDy=0;exitX=0.5;exitY=1;exitDx=0;exitDy=0;exitPerimeter=0;" edge="1" source="2mamSJqBOHEd31Jv1TZt-123" target="2mamSJqBOHEd31Jv1TZt-124" parent="WIyWlLk6GJQsqaUBKTNV-1">
          <mxGeometry width="50" height="50" relative="1" as="geometry">
            <mxPoint x="-930" y="85" as="sourcePoint" />
            <mxPoint x="-900" y="105" as="targetPoint" />
          </mxGeometry>
        </mxCell>
        <mxCell id="2mamSJqBOHEd31Jv1TZt-123" value="Start" style="strokeWidth=2;html=1;shape=mxgraph.flowchart.start_1;whiteSpace=wrap;" vertex="1" parent="WIyWlLk6GJQsqaUBKTNV-1">
          <mxGeometry x="-620" y="-175" width="100" height="60" as="geometry" />
        </mxCell>
        <mxCell id="2mamSJqBOHEd31Jv1TZt-124" value="Signup/Login" style="rounded=1;whiteSpace=wrap;html=1;" vertex="1" parent="WIyWlLk6GJQsqaUBKTNV-1">
          <mxGeometry x="-630" y="-85" width="120" height="60" as="geometry" />
        </mxCell>
        <mxCell id="2mamSJqBOHEd31Jv1TZt-125" value="" style="endArrow=classic;html=1;rounded=0;strokeColor=#FF0000;entryX=1;entryY=0.5;entryDx=0;entryDy=0;exitX=0.5;exitY=1;exitDx=0;exitDy=0;exitPerimeter=0;" edge="1" target="2mamSJqBOHEd31Jv1TZt-137" parent="WIyWlLk6GJQsqaUBKTNV-1" source="2mamSJqBOHEd31Jv1TZt-162">
          <mxGeometry width="50" height="50" relative="1" as="geometry">
            <mxPoint x="-380" y="645" as="sourcePoint" />
            <mxPoint x="-460" y="1135" as="targetPoint" />
            <Array as="points">
              <mxPoint x="-380" y="1125" />
            </Array>
          </mxGeometry>
        </mxCell>
        <mxCell id="2mamSJqBOHEd31Jv1TZt-126" value="" style="endArrow=classic;html=1;rounded=0;strokeColor=#FF0000;exitX=0.5;exitY=1;exitDx=0;exitDy=0;entryX=0.6;entryY=0;entryDx=0;entryDy=0;entryPerimeter=0;" edge="1" source="2mamSJqBOHEd31Jv1TZt-131" target="2mamSJqBOHEd31Jv1TZt-130" parent="WIyWlLk6GJQsqaUBKTNV-1">
          <mxGeometry width="50" height="50" relative="1" as="geometry">
            <mxPoint x="-1180" y="85" as="sourcePoint" />
            <mxPoint x="-800" y="605" as="targetPoint" />
          </mxGeometry>
        </mxCell>
        <mxCell id="2mamSJqBOHEd31Jv1TZt-127" value="" style="endArrow=classic;html=1;rounded=0;strokeColor=#FF0000;exitX=0.5;exitY=1;exitDx=0;exitDy=0;" edge="1" source="2mamSJqBOHEd31Jv1TZt-132" target="2mamSJqBOHEd31Jv1TZt-136" parent="WIyWlLk6GJQsqaUBKTNV-1">
          <mxGeometry width="50" height="50" relative="1" as="geometry">
            <mxPoint x="-950.5" y="25" as="sourcePoint" />
            <mxPoint x="-950.5" y="75" as="targetPoint" />
          </mxGeometry>
        </mxCell>
        <mxCell id="2mamSJqBOHEd31Jv1TZt-128" value="" style="endArrow=classic;html=1;rounded=0;strokeColor=#FF0000;entryX=0.58;entryY=0.017;entryDx=0;entryDy=0;exitX=0.5;exitY=1;exitDx=0;exitDy=0;exitPerimeter=0;entryPerimeter=0;" edge="1" target="2mamSJqBOHEd31Jv1TZt-132" parent="WIyWlLk6GJQsqaUBKTNV-1">
          <mxGeometry width="50" height="50" relative="1" as="geometry">
            <mxPoint x="-570.5" y="65" as="sourcePoint" />
            <mxPoint x="-570.5" y="115" as="targetPoint" />
          </mxGeometry>
        </mxCell>
        <mxCell id="2mamSJqBOHEd31Jv1TZt-129" value="" style="endArrow=classic;html=1;rounded=0;strokeColor=#FF0000;entryX=0.5;entryY=0;entryDx=0;entryDy=0;exitX=0.5;exitY=1;exitDx=0;exitDy=0;" edge="1" source="2mamSJqBOHEd31Jv1TZt-124" parent="WIyWlLk6GJQsqaUBKTNV-1">
          <mxGeometry width="50" height="50" relative="1" as="geometry">
            <mxPoint x="-921" y="25" as="sourcePoint" />
            <mxPoint x="-570" y="5" as="targetPoint" />
          </mxGeometry>
        </mxCell>
        <mxCell id="2mamSJqBOHEd31Jv1TZt-130" value="Re-Enter&lt;br&gt;Password" style="shape=parallelogram;html=1;strokeWidth=2;perimeter=parallelogramPerimeter;whiteSpace=wrap;rounded=1;arcSize=12;size=0.23;" vertex="1" parent="WIyWlLk6GJQsqaUBKTNV-1">
          <mxGeometry x="-850" y="605" width="100" height="60" as="geometry" />
        </mxCell>
        <mxCell id="2mamSJqBOHEd31Jv1TZt-131" value="Enter&lt;br&gt;&amp;nbsp;Password" style="shape=parallelogram;html=1;strokeWidth=2;perimeter=parallelogramPerimeter;whiteSpace=wrap;rounded=1;arcSize=12;size=0.23;" vertex="1" parent="WIyWlLk6GJQsqaUBKTNV-1">
          <mxGeometry x="-840" y="499.5" width="100" height="60" as="geometry" />
        </mxCell>
        <mxCell id="2mamSJqBOHEd31Jv1TZt-132" value="Mobile&lt;br&gt;&amp;nbsp;Number" style="shape=parallelogram;html=1;strokeWidth=2;perimeter=parallelogramPerimeter;whiteSpace=wrap;rounded=1;arcSize=12;size=0.23;" vertex="1" parent="WIyWlLk6GJQsqaUBKTNV-1">
          <mxGeometry x="-630" y="93" width="100" height="60" as="geometry" />
        </mxCell>
        <mxCell id="2mamSJqBOHEd31Jv1TZt-133" value="Country&amp;nbsp;&lt;br&gt;Code" style="shape=parallelogram;html=1;strokeWidth=2;perimeter=parallelogramPerimeter;whiteSpace=wrap;rounded=1;arcSize=12;size=0.23;" vertex="1" parent="WIyWlLk6GJQsqaUBKTNV-1">
          <mxGeometry x="-620" y="5" width="100" height="60" as="geometry" />
        </mxCell>
        <mxCell id="2mamSJqBOHEd31Jv1TZt-134" value="Account Already&lt;br&gt;Exists" style="strokeWidth=2;html=1;shape=mxgraph.flowchart.decision;whiteSpace=wrap;" vertex="1" parent="WIyWlLk6GJQsqaUBKTNV-1">
          <mxGeometry x="-640" y="315" width="120" height="100" as="geometry" />
        </mxCell>
        <mxCell id="2mamSJqBOHEd31Jv1TZt-135" value="Full filling&amp;nbsp;&lt;br&gt;Conditions" style="strokeWidth=2;html=1;shape=mxgraph.flowchart.decision;whiteSpace=wrap;" vertex="1" parent="WIyWlLk6GJQsqaUBKTNV-1">
          <mxGeometry x="-850" y="715" width="100" height="100" as="geometry" />
        </mxCell>
        <mxCell id="2mamSJqBOHEd31Jv1TZt-136" value="Country code==&lt;br&gt;Mobile Number" style="strokeWidth=2;html=1;shape=mxgraph.flowchart.decision;whiteSpace=wrap;" vertex="1" parent="WIyWlLk6GJQsqaUBKTNV-1">
          <mxGeometry x="-635" y="185" width="110" height="100" as="geometry" />
        </mxCell>
        <mxCell id="2mamSJqBOHEd31Jv1TZt-137" value="Home Page" style="rounded=1;whiteSpace=wrap;html=1;" vertex="1" parent="WIyWlLk6GJQsqaUBKTNV-1">
          <mxGeometry x="-590" y="1095" width="120" height="60" as="geometry" />
        </mxCell>
        <mxCell id="2mamSJqBOHEd31Jv1TZt-138" value="Forget&lt;br&gt;password" style="rounded=1;whiteSpace=wrap;html=1;" vertex="1" parent="WIyWlLk6GJQsqaUBKTNV-1">
          <mxGeometry x="-280" y="435" width="120" height="60" as="geometry" />
        </mxCell>
        <mxCell id="2mamSJqBOHEd31Jv1TZt-139" value="Password" style="rounded=1;whiteSpace=wrap;html=1;" vertex="1" parent="WIyWlLk6GJQsqaUBKTNV-1">
          <mxGeometry x="-440" y="335" width="120" height="60" as="geometry" />
        </mxCell>
        <mxCell id="2mamSJqBOHEd31Jv1TZt-140" value="Primary&amp;nbsp;email" style="rounded=1;whiteSpace=wrap;html=1;" vertex="1" parent="WIyWlLk6GJQsqaUBKTNV-1">
          <mxGeometry x="-860" y="855" width="120" height="60" as="geometry" />
        </mxCell>
        <mxCell id="2mamSJqBOHEd31Jv1TZt-141" value="Create Password" style="rounded=1;whiteSpace=wrap;html=1;" vertex="1" parent="WIyWlLk6GJQsqaUBKTNV-1">
          <mxGeometry x="-850" y="395" width="120" height="60" as="geometry" />
        </mxCell>
        <mxCell id="2mamSJqBOHEd31Jv1TZt-142" value="" style="endArrow=classic;html=1;rounded=0;strokeColor=#FF0000;exitX=0.5;exitY=1;exitDx=0;exitDy=0;exitPerimeter=0;entryX=-0.016;entryY=0.638;entryDx=0;entryDy=0;entryPerimeter=0;" edge="1" source="2mamSJqBOHEd31Jv1TZt-161" target="2mamSJqBOHEd31Jv1TZt-137" parent="WIyWlLk6GJQsqaUBKTNV-1">
          <mxGeometry width="50" height="50" relative="1" as="geometry">
            <mxPoint x="-801.11" y="1255" as="sourcePoint" />
            <mxPoint x="-600" y="1135" as="targetPoint" />
          </mxGeometry>
        </mxCell>
        <mxCell id="2mamSJqBOHEd31Jv1TZt-143" value="" style="endArrow=classic;html=1;rounded=0;strokeColor=#FF0000;entryX=0.5;entryY=0;entryDx=0;entryDy=0;exitX=0.5;exitY=1;exitDx=0;exitDy=0;" edge="1" source="2mamSJqBOHEd31Jv1TZt-141" target="2mamSJqBOHEd31Jv1TZt-131" parent="WIyWlLk6GJQsqaUBKTNV-1">
          <mxGeometry width="50" height="50" relative="1" as="geometry">
            <mxPoint x="-1171" y="95" as="sourcePoint" />
            <mxPoint x="-1171" y="145" as="targetPoint" />
          </mxGeometry>
        </mxCell>
        <mxCell id="2mamSJqBOHEd31Jv1TZt-144" value="" style="endArrow=classic;html=1;rounded=0;strokeColor=#FF0000;exitX=0.5;exitY=1;exitDx=0;exitDy=0;exitPerimeter=0;entryX=0.5;entryY=0;entryDx=0;entryDy=0;entryPerimeter=0;" edge="1" source="2mamSJqBOHEd31Jv1TZt-136" target="2mamSJqBOHEd31Jv1TZt-134" parent="WIyWlLk6GJQsqaUBKTNV-1">
          <mxGeometry width="50" height="50" relative="1" as="geometry">
            <mxPoint x="-950.5" y="45" as="sourcePoint" />
            <mxPoint x="-580" y="325" as="targetPoint" />
          </mxGeometry>
        </mxCell>
        <mxCell id="2mamSJqBOHEd31Jv1TZt-145" value="" style="endArrow=classic;html=1;rounded=0;strokeColor=#FF0000;entryX=1;entryY=0.5;entryDx=0;entryDy=0;exitX=1;exitY=0.5;exitDx=0;exitDy=0;exitPerimeter=0;" edge="1" source="2mamSJqBOHEd31Jv1TZt-136" target="2mamSJqBOHEd31Jv1TZt-124" parent="WIyWlLk6GJQsqaUBKTNV-1">
          <mxGeometry width="50" height="50" relative="1" as="geometry">
            <mxPoint x="-450" y="245" as="sourcePoint" />
            <mxPoint x="-450" y="295" as="targetPoint" />
            <Array as="points">
              <mxPoint x="-480" y="235" />
              <mxPoint x="-480" y="-55" />
            </Array>
          </mxGeometry>
        </mxCell>
        <mxCell id="2mamSJqBOHEd31Jv1TZt-146" value="No" style="text;html=1;align=center;verticalAlign=middle;resizable=0;points=[];autosize=1;strokeColor=none;fillColor=none;" vertex="1" parent="WIyWlLk6GJQsqaUBKTNV-1">
          <mxGeometry x="-550" y="193" width="40" height="30" as="geometry" />
        </mxCell>
        <mxCell id="2mamSJqBOHEd31Jv1TZt-147" value="Yes" style="text;html=1;align=center;verticalAlign=middle;resizable=0;points=[];autosize=1;strokeColor=none;fillColor=none;" vertex="1" parent="WIyWlLk6GJQsqaUBKTNV-1">
          <mxGeometry x="-570" y="263" width="40" height="30" as="geometry" />
        </mxCell>
        <mxCell id="2mamSJqBOHEd31Jv1TZt-148" value="" style="endArrow=classic;html=1;rounded=0;strokeColor=#FF0000;exitX=1;exitY=0.5;exitDx=0;exitDy=0;exitPerimeter=0;" edge="1" source="2mamSJqBOHEd31Jv1TZt-134" parent="WIyWlLk6GJQsqaUBKTNV-1">
          <mxGeometry width="50" height="50" relative="1" as="geometry">
            <mxPoint x="-430" y="355" as="sourcePoint" />
            <mxPoint x="-440" y="365" as="targetPoint" />
          </mxGeometry>
        </mxCell>
        <mxCell id="2mamSJqBOHEd31Jv1TZt-149" value="" style="endArrow=classic;html=1;rounded=0;strokeColor=#FF0000;exitX=1;exitY=0.5;exitDx=0;exitDy=0;exitPerimeter=0;entryX=1;entryY=0.5;entryDx=0;entryDy=0;" edge="1" source="2mamSJqBOHEd31Jv1TZt-135" target="2mamSJqBOHEd31Jv1TZt-141" parent="WIyWlLk6GJQsqaUBKTNV-1">
          <mxGeometry width="50" height="50" relative="1" as="geometry">
            <mxPoint x="-590" y="685" as="sourcePoint" />
            <mxPoint x="-540" y="615" as="targetPoint" />
            <Array as="points">
              <mxPoint x="-690" y="765" />
              <mxPoint x="-690" y="425" />
            </Array>
          </mxGeometry>
        </mxCell>
        <mxCell id="2mamSJqBOHEd31Jv1TZt-150" value="" style="endArrow=classic;html=1;rounded=0;strokeColor=#FF0000;entryX=0.5;entryY=0;entryDx=0;entryDy=0;exitX=0.5;exitY=1;exitDx=0;exitDy=0;entryPerimeter=0;" edge="1" source="2mamSJqBOHEd31Jv1TZt-130" target="2mamSJqBOHEd31Jv1TZt-135" parent="WIyWlLk6GJQsqaUBKTNV-1">
          <mxGeometry width="50" height="50" relative="1" as="geometry">
            <mxPoint x="-1161" y="115" as="sourcePoint" />
            <mxPoint x="-1161" y="165" as="targetPoint" />
          </mxGeometry>
        </mxCell>
        <mxCell id="2mamSJqBOHEd31Jv1TZt-151" value="Enter&lt;br&gt;&amp;nbsp;Password" style="shape=parallelogram;html=1;strokeWidth=2;perimeter=parallelogramPerimeter;whiteSpace=wrap;rounded=1;arcSize=12;size=0.23;" vertex="1" parent="WIyWlLk6GJQsqaUBKTNV-1">
          <mxGeometry x="-430" y="435" width="100" height="60" as="geometry" />
        </mxCell>
        <mxCell id="2mamSJqBOHEd31Jv1TZt-152" value="Enter Email" style="shape=parallelogram;html=1;strokeWidth=2;perimeter=parallelogramPerimeter;whiteSpace=wrap;rounded=1;arcSize=12;size=0.23;" vertex="1" parent="WIyWlLk6GJQsqaUBKTNV-1">
          <mxGeometry x="-850" y="945" width="100" height="60" as="geometry" />
        </mxCell>
        <mxCell id="2mamSJqBOHEd31Jv1TZt-153" value="No" style="text;html=1;align=center;verticalAlign=middle;resizable=0;points=[];autosize=1;strokeColor=none;fillColor=none;" vertex="1" parent="WIyWlLk6GJQsqaUBKTNV-1">
          <mxGeometry x="-780" y="713" width="40" height="30" as="geometry" />
        </mxCell>
        <mxCell id="2mamSJqBOHEd31Jv1TZt-154" value="Yes" style="text;html=1;align=center;verticalAlign=middle;resizable=0;points=[];autosize=1;strokeColor=none;fillColor=none;" vertex="1" parent="WIyWlLk6GJQsqaUBKTNV-1">
          <mxGeometry x="-780" y="793" width="40" height="30" as="geometry" />
        </mxCell>
        <mxCell id="2mamSJqBOHEd31Jv1TZt-155" value="" style="endArrow=classic;html=1;rounded=0;strokeColor=#FF0000;exitX=0;exitY=0.5;exitDx=0;exitDy=0;exitPerimeter=0;entryX=0.417;entryY=0;entryDx=0;entryDy=0;entryPerimeter=0;" edge="1" source="2mamSJqBOHEd31Jv1TZt-134" target="2mamSJqBOHEd31Jv1TZt-141" parent="WIyWlLk6GJQsqaUBKTNV-1">
          <mxGeometry width="50" height="50" relative="1" as="geometry">
            <mxPoint x="-930" y="385" as="sourcePoint" />
            <mxPoint x="-760" y="365" as="targetPoint" />
            <Array as="points">
              <mxPoint x="-800" y="365" />
            </Array>
          </mxGeometry>
        </mxCell>
        <mxCell id="2mamSJqBOHEd31Jv1TZt-156" value="" style="endArrow=classic;html=1;rounded=0;strokeColor=#FF0000;exitX=0.5;exitY=1;exitDx=0;exitDy=0;exitPerimeter=0;entryX=0.5;entryY=0;entryDx=0;entryDy=0;" edge="1" source="2mamSJqBOHEd31Jv1TZt-135" target="2mamSJqBOHEd31Jv1TZt-140" parent="WIyWlLk6GJQsqaUBKTNV-1">
          <mxGeometry width="50" height="50" relative="1" as="geometry">
            <mxPoint x="-1070" y="783" as="sourcePoint" />
            <mxPoint x="-800" y="865" as="targetPoint" />
          </mxGeometry>
        </mxCell>
        <mxCell id="2mamSJqBOHEd31Jv1TZt-157" value="Yes" style="text;html=1;align=center;verticalAlign=middle;resizable=0;points=[];autosize=1;strokeColor=none;fillColor=none;" vertex="1" parent="WIyWlLk6GJQsqaUBKTNV-1">
          <mxGeometry x="-540" y="323" width="40" height="30" as="geometry" />
        </mxCell>
        <mxCell id="2mamSJqBOHEd31Jv1TZt-158" value="No" style="text;html=1;align=center;verticalAlign=middle;resizable=0;points=[];autosize=1;strokeColor=none;fillColor=none;" vertex="1" parent="WIyWlLk6GJQsqaUBKTNV-1">
          <mxGeometry x="-660" y="323" width="40" height="30" as="geometry" />
        </mxCell>
        <mxCell id="2mamSJqBOHEd31Jv1TZt-159" value="" style="endArrow=classic;html=1;rounded=0;strokeColor=#FF0000;exitX=0.5;exitY=0;exitDx=0;exitDy=0;entryX=1;entryY=0.5;entryDx=0;entryDy=0;" edge="1" source="2mamSJqBOHEd31Jv1TZt-138" target="2mamSJqBOHEd31Jv1TZt-139" parent="WIyWlLk6GJQsqaUBKTNV-1">
          <mxGeometry width="50" height="50" relative="1" as="geometry">
            <mxPoint x="-310" y="125" as="sourcePoint" />
            <mxPoint x="-310" y="175" as="targetPoint" />
            <Array as="points">
              <mxPoint x="-220" y="365" />
            </Array>
          </mxGeometry>
        </mxCell>
        <mxCell id="2mamSJqBOHEd31Jv1TZt-160" value="" style="endArrow=classic;html=1;rounded=0;strokeColor=#FF0000;exitX=0.5;exitY=1;exitDx=0;exitDy=0;entryX=0.5;entryY=0;entryDx=0;entryDy=0;" edge="1" source="2mamSJqBOHEd31Jv1TZt-139" target="2mamSJqBOHEd31Jv1TZt-151" parent="WIyWlLk6GJQsqaUBKTNV-1">
          <mxGeometry width="50" height="50" relative="1" as="geometry">
            <mxPoint x="-430" y="605" as="sourcePoint" />
            <mxPoint x="-380" y="455" as="targetPoint" />
          </mxGeometry>
        </mxCell>
        <mxCell id="2mamSJqBOHEd31Jv1TZt-161" value="Verify Email" style="strokeWidth=2;html=1;shape=mxgraph.flowchart.decision;whiteSpace=wrap;" vertex="1" parent="WIyWlLk6GJQsqaUBKTNV-1">
          <mxGeometry x="-850" y="1035" width="100" height="100" as="geometry" />
        </mxCell>
        <mxCell id="2mamSJqBOHEd31Jv1TZt-162" value="Verify&lt;br&gt;&amp;nbsp;Password" style="strokeWidth=2;html=1;shape=mxgraph.flowchart.decision;whiteSpace=wrap;" vertex="1" parent="WIyWlLk6GJQsqaUBKTNV-1">
          <mxGeometry x="-430" y="535" width="100" height="100" as="geometry" />
        </mxCell>
        <mxCell id="2mamSJqBOHEd31Jv1TZt-163" value="" style="endArrow=classic;html=1;rounded=0;strokeColor=#FF0000;entryX=0.5;entryY=1;entryDx=0;entryDy=0;exitX=1;exitY=0.5;exitDx=0;exitDy=0;exitPerimeter=0;" edge="1" source="2mamSJqBOHEd31Jv1TZt-162" target="2mamSJqBOHEd31Jv1TZt-138" parent="WIyWlLk6GJQsqaUBKTNV-1">
          <mxGeometry width="50" height="50" relative="1" as="geometry">
            <mxPoint x="-230" y="535" as="sourcePoint" />
            <mxPoint x="-230" y="585" as="targetPoint" />
            <Array as="points">
              <mxPoint x="-220" y="585" />
              <mxPoint x="-220" y="500" />
            </Array>
          </mxGeometry>
        </mxCell>
        <mxCell id="2mamSJqBOHEd31Jv1TZt-164" value="No" style="text;html=1;align=center;verticalAlign=middle;resizable=0;points=[];autosize=1;strokeColor=none;fillColor=none;" vertex="1" parent="WIyWlLk6GJQsqaUBKTNV-1">
          <mxGeometry x="-350" y="545" width="40" height="30" as="geometry" />
        </mxCell>
        <mxCell id="2mamSJqBOHEd31Jv1TZt-165" value="Yes" style="text;html=1;align=center;verticalAlign=middle;resizable=0;points=[];autosize=1;strokeColor=none;fillColor=none;" vertex="1" parent="WIyWlLk6GJQsqaUBKTNV-1">
          <mxGeometry x="-350" y="605" width="40" height="30" as="geometry" />
        </mxCell>
        <mxCell id="2mamSJqBOHEd31Jv1TZt-166" value="" style="endArrow=classic;html=1;rounded=0;strokeColor=#FF0000;entryX=0.5;entryY=0;entryDx=0;entryDy=0;exitX=0.5;exitY=1;exitDx=0;exitDy=0;entryPerimeter=0;" edge="1" source="2mamSJqBOHEd31Jv1TZt-151" target="2mamSJqBOHEd31Jv1TZt-162" parent="WIyWlLk6GJQsqaUBKTNV-1">
          <mxGeometry width="50" height="50" relative="1" as="geometry">
            <mxPoint x="-551.11" y="713" as="sourcePoint" />
            <mxPoint x="-551.11" y="763" as="targetPoint" />
          </mxGeometry>
        </mxCell>
        <mxCell id="2mamSJqBOHEd31Jv1TZt-167" value="" style="endArrow=classic;html=1;rounded=0;strokeColor=#FF0000;entryX=0.5;entryY=0;entryDx=0;entryDy=0;exitX=0.5;exitY=1;exitDx=0;exitDy=0;" edge="1" source="2mamSJqBOHEd31Jv1TZt-140" target="2mamSJqBOHEd31Jv1TZt-152" parent="WIyWlLk6GJQsqaUBKTNV-1">
          <mxGeometry width="50" height="50" relative="1" as="geometry">
            <mxPoint x="-1060" y="955" as="sourcePoint" />
            <mxPoint x="-1060" y="1005" as="targetPoint" />
          </mxGeometry>
        </mxCell>
        <mxCell id="2mamSJqBOHEd31Jv1TZt-168" value="" style="endArrow=classic;html=1;rounded=0;strokeColor=#FF0000;entryX=1;entryY=0.5;entryDx=0;entryDy=0;exitX=1;exitY=0.5;exitDx=0;exitDy=0;exitPerimeter=0;" edge="1" source="2mamSJqBOHEd31Jv1TZt-161" target="2mamSJqBOHEd31Jv1TZt-140" parent="WIyWlLk6GJQsqaUBKTNV-1">
          <mxGeometry width="50" height="50" relative="1" as="geometry">
            <mxPoint x="-581.11" y="1115" as="sourcePoint" />
            <mxPoint x="-581.11" y="1165" as="targetPoint" />
            <Array as="points">
              <mxPoint x="-700" y="1085" />
              <mxPoint x="-700" y="995" />
              <mxPoint x="-700" y="885" />
            </Array>
          </mxGeometry>
        </mxCell>
        <mxCell id="2mamSJqBOHEd31Jv1TZt-169" value="" style="endArrow=classic;html=1;rounded=0;strokeColor=#FF0000;exitX=0.5;exitY=1;exitDx=0;exitDy=0;entryX=0.5;entryY=0;entryDx=0;entryDy=0;entryPerimeter=0;" edge="1" source="2mamSJqBOHEd31Jv1TZt-152" target="2mamSJqBOHEd31Jv1TZt-161" parent="WIyWlLk6GJQsqaUBKTNV-1">
          <mxGeometry width="50" height="50" relative="1" as="geometry">
            <mxPoint x="-670" y="1055" as="sourcePoint" />
            <mxPoint x="-800" y="1065" as="targetPoint" />
          </mxGeometry>
        </mxCell>
        <mxCell id="2mamSJqBOHEd31Jv1TZt-170" value="No" style="text;html=1;align=center;verticalAlign=middle;resizable=0;points=[];autosize=1;strokeColor=none;fillColor=none;" vertex="1" parent="WIyWlLk6GJQsqaUBKTNV-1">
          <mxGeometry x="-780" y="1033" width="40" height="30" as="geometry" />
        </mxCell>
        <mxCell id="2mamSJqBOHEd31Jv1TZt-171" value="Yes" style="text;html=1;align=center;verticalAlign=middle;resizable=0;points=[];autosize=1;strokeColor=none;fillColor=none;" vertex="1" parent="WIyWlLk6GJQsqaUBKTNV-1">
          <mxGeometry x="-780" y="1105" width="40" height="30" as="geometry" />
        </mxCell>
        <mxCell id="2mamSJqBOHEd31Jv1TZt-172" value="End" style="ellipse;whiteSpace=wrap;html=1;" vertex="1" parent="WIyWlLk6GJQsqaUBKTNV-1">
          <mxGeometry x="-590" y="1195" width="120" height="80" as="geometry" />
        </mxCell>
        <mxCell id="2mamSJqBOHEd31Jv1TZt-173" value="" style="endArrow=classic;html=1;rounded=0;strokeColor=#FF0000;exitX=0.5;exitY=1;exitDx=0;exitDy=0;entryX=0.5;entryY=0;entryDx=0;entryDy=0;" edge="1" source="2mamSJqBOHEd31Jv1TZt-137" target="2mamSJqBOHEd31Jv1TZt-172" parent="WIyWlLk6GJQsqaUBKTNV-1">
          <mxGeometry width="50" height="50" relative="1" as="geometry">
            <mxPoint x="-850" y="1255.75" as="sourcePoint" />
            <mxPoint x="-642" y="1253.75" as="targetPoint" />
          </mxGeometry>
        </mxCell>
        <mxCell id="2mamSJqBOHEd31Jv1TZt-174" value="Expert_signin_up" style="swimlane;whiteSpace=wrap;html=1;" vertex="1" parent="WIyWlLk6GJQsqaUBKTNV-1">
          <mxGeometry x="-1060" y="-210" width="960" height="1500" as="geometry" />
        </mxCell>
      </root>
    </mxGraphModel>
  </diagram>
</mxfile>
